# xmcd
#
# Track frame offsets: 
#        150
#        18608
#        37545
#        53953
#        68531
#        81303
#        95097
#        114202
#        128868
#        144360
#        168065
#        183097
#        197842
#        214616
#        234493
#        254041
#        268248
#
# Disc length: 3772 seconds
#
# Revision: 4
# Processed by: cddbd v1.5.2PL0 Copyright (c) Steve Scherf et al.
# Submitted via: ExactAudioCopyFreeDBPlugin 1.0
#
DISCID=e70eba11
DTITLE=Grant and Forsyth - 1996 - Hun Grootste Successen Cd 1
DYEAR=1996
DGENRE=Country
TTITLE0=The Sun Ain't Gonna Shine Anymore - Be My Baby
TTITLE1=Anything for You
TTITLE2=To Know You Is to Love You
TTITLE3=Driving My Life Away
TTITLE4=I Believe
TTITLE5=Lady Bird
TTITLE6=You've Lost That Lovin Feeling
TTITLE7=Sometimes When We Touch
TTITLE8=Why Not Me
TTITLE9=Slow Medley
TTITLE10=Walk of Life
TTITLE11=Let It Be Me
TTITLE12=Love on the Rocks
TTITLE13=Do That to Me One More Time
TTITLE14=I Swear
TTITLE15=Tennessee Waltz
TTITLE16=Behind Closed Doors
EXTD=ID3G:   2
EXTT0=
EXTT1=
EXTT2=
EXTT3=
EXTT4=
EXTT5=
EXTT6=
EXTT7=
EXTT8=
EXTT9=
EXTT10=
EXTT11=
EXTT12=
EXTT13=
EXTT14=
EXTT15=
EXTT16=
PLAYORDER=
